<svg width="608" height="205" xmlns="http://www.w3.org/2000/svg"><g fill="none" fill-rule="evenodd"><path d="M136.549 145h-16.065V69.395h16.065V145zm-17.022-95.635c0-2.87.786-5.081 2.359-6.63 1.572-1.55 3.816-2.325 6.733-2.325 2.826 0 5.025.775 6.597 2.324 1.572 1.55 2.358 3.76 2.358 6.631 0 2.735-.786 4.888-2.358 6.46s-3.771 2.359-6.597 2.359c-2.917 0-5.161-.787-6.733-2.359-1.573-1.572-2.359-3.725-2.359-6.46zM175.582 145h-16.064V38.633h16.064V145zm48.467 1.367c-9.434 0-16.794-3.418-22.08-10.254-5.287-6.836-7.93-16.429-7.93-28.779 0-12.396 2.677-22.046 8.032-28.95 5.355-6.905 12.772-10.357 22.251-10.357 9.935 0 17.5 3.669 22.696 11.006h.82c-.775-5.423-1.162-9.707-1.162-12.851v-27.55h16.133V145H250.23l-2.802-9.912h-.752c-5.15 7.52-12.692 11.28-22.627 11.28zm4.306-12.988c6.609 0 11.416-1.857 14.424-5.571 3.008-3.715 4.558-9.742 4.649-18.081v-2.256c0-9.525-1.55-16.293-4.649-20.303-3.099-4.01-7.952-6.016-14.56-6.016-5.651 0-10.003 2.29-13.057 6.87-3.053 4.58-4.58 11.109-4.58 19.585 0 8.386 1.481 14.777 4.443 19.175 2.963 4.398 7.406 6.597 13.33 6.597zm90.44 12.988c-11.758 0-20.952-3.43-27.583-10.288-6.631-6.859-9.946-16.304-9.946-28.335 0-12.35 3.076-22.057 9.228-29.121 6.153-7.064 14.606-10.596 25.361-10.596 9.981 0 17.865 3.03 23.653 9.092 5.788 6.061 8.681 14.401 8.681 25.02v8.681h-50.38c.227 7.338 2.21 12.977 5.947 16.92 3.737 3.941 9 5.912 15.79 5.912 4.467 0 8.626-.421 12.476-1.264 3.851-.843 7.987-2.245 12.408-4.204v13.056c-3.92 1.869-7.884 3.19-11.895 3.965-4.01.775-8.59 1.162-13.74 1.162zm-2.94-66.172c-5.104 0-9.194 1.618-12.27 4.854-3.076 3.236-4.91 7.952-5.503 14.15h34.316c-.09-6.243-1.595-10.971-4.511-14.184-2.917-3.213-6.927-4.82-12.032-4.82zm88.936-12.168c3.236 0 5.902.228 7.998.684l-1.572 14.97a30.362 30.362 0 0 0-7.11-.82c-6.425 0-11.632 2.097-15.62 6.29-3.987 4.192-5.981 9.638-5.981 16.337V145H366.44V69.395h12.579l2.119 13.33h.82c2.507-4.512 5.776-8.09 9.81-10.733 4.033-2.643 8.374-3.965 13.022-3.965zm89.072 39.034c0 12.35-3.167 21.988-9.502 28.916-6.334 6.927-15.153 10.39-26.455 10.39-7.064 0-13.307-1.595-18.73-4.785-5.423-3.19-9.593-7.77-12.51-13.74-2.917-5.97-4.375-12.897-4.375-20.781 0-12.26 3.145-21.83 9.434-28.711 6.289-6.882 15.153-10.323 26.591-10.323 10.938 0 19.597 3.52 25.977 10.562 6.38 7.04 9.57 16.531 9.57 28.472zm-55.029 0c0 17.454 6.448 26.181 19.346 26.181 12.76 0 19.14-8.727 19.14-26.181 0-17.273-6.425-25.909-19.277-25.909-6.745 0-11.633 2.233-14.663 6.7-3.03 4.466-4.546 10.869-4.546 19.209zm62.002-37.666h17.5l15.38 42.86c2.325 6.108 3.874 11.85 4.65 17.227h.546c.41-2.506 1.162-5.548 2.256-9.126 1.094-3.577 6.881-20.564 17.363-50.961h17.364l-32.334 85.654c-5.88 15.723-15.677 23.584-29.395 23.584-3.555 0-7.018-.388-10.39-1.162v-12.715c2.415.547 5.172.82 8.27.82 7.748 0 13.194-4.489 16.339-13.467l2.803-7.109-30.352-75.605z" fill="#939393"/><path d="M106.332 69.395v8.818l-12.92 2.392c1.185 1.596 2.165 3.555 2.94 5.88.774 2.324 1.162 4.785 1.162 7.382 0 7.793-2.69 13.923-8.067 18.389-5.377 4.466-12.783 6.7-22.217 6.7-2.415 0-4.602-.183-6.562-.548-3.464 2.142-5.195 4.649-5.195 7.52 0 1.732.809 3.03 2.426 3.896 1.618.866 4.592 1.299 8.921 1.299h13.194c8.34 0 14.674 1.777 19.004 5.332 4.329 3.555 6.494 8.682 6.494 15.38 0 8.569-3.532 15.177-10.596 19.825-7.064 4.649-17.272 6.973-30.625 6.973-10.3 0-18.16-1.823-23.584-5.469-5.423-3.646-8.135-8.841-8.135-15.586 0-4.648 1.47-8.556 4.41-11.724 2.939-3.167 7.052-5.366 12.338-6.596-2.142-.912-3.908-2.381-5.298-4.41-1.39-2.027-2.084-4.158-2.084-6.391 0-2.826.797-5.218 2.392-7.178 1.595-1.96 3.965-3.896 7.11-5.81-3.92-1.686-7.099-4.432-9.537-8.238-2.438-3.805-3.657-8.26-3.657-13.364 0-8.203 2.586-14.56 7.759-19.072 5.172-4.512 12.544-6.768 22.114-6.768 2.142 0 4.387.148 6.734.445 2.347.296 4.112.604 5.297.923h26.182zm-59.404 87.363c0 3.463 1.56 6.13 4.682 7.998 3.122 1.868 7.508 2.803 13.16 2.803 8.75 0 15.266-1.254 19.55-3.76 4.284-2.507 6.426-5.833 6.426-9.98 0-3.282-1.173-5.617-3.52-7.007-2.347-1.39-6.711-2.085-13.091-2.085H61.967c-4.603 0-8.26 1.082-10.972 3.247-2.711 2.164-4.067 5.092-4.067 8.784zm6.904-62.89c0 4.739 1.22 8.385 3.657 10.937 2.438 2.552 5.936 3.828 10.493 3.828 9.297 0 13.946-4.968 13.946-14.903 0-4.921-1.151-8.715-3.452-11.381-2.302-2.666-5.8-4-10.494-4-4.648 0-8.169 1.322-10.561 3.965-2.393 2.644-3.589 6.495-3.589 11.553z" fill="#07966D"/></g></svg>